<?xml version="1.0" encoding="utf-8"?>
<!-- Generator: Adobe Illustrator 19.0.0, SVG Export Plug-In . SVG Version: 6.00 Build 0)  -->
<svg version="1.1" id="Layer_1" xmlns="http://www.w3.org/2000/svg" xmlns:xlink="http://www.w3.org/1999/xlink" x="0px" y="0px"
	 viewBox="0 0 48 48" style="enable-background:new 0 0 48 48;" xml:space="preserve">
<g id="XMLID_44_">
	<polygon id="XMLID_23_" points="45,48 45.6,48 28.2,24 27.6,24 	"/>
	<polygon id="XMLID_28_" points="42.7,48 43.3,48 27,24 26.4,24 	"/>
	<polygon id="XMLID_27_" points="40.4,48 41,48 25.8,24 25.2,24 	"/>
	<polygon id="XMLID_26_" points="38.1,48 38.7,48 24.6,24 24,24 	"/>
	<polygon id="XMLID_25_" points="35.8,48 36.4,48 23.4,24 22.8,24 	"/>
	<polygon id="XMLID_24_" points="33.5,48 34.1,48 22.2,24 21.6,24 	"/>
	<polygon id="XMLID_22_" points="31.2,48 31.8,48 21,24 20.4,24 	"/>
</g>
<g id="XMLID_43_">
	<polygon id="XMLID_16_" points="3,48 2.4,48 20.4,24 21,24 	"/>
	<polygon id="XMLID_21_" points="5.4,48 4.8,48 21.6,24 22.2,24 	"/>
	<polygon id="XMLID_20_" points="7.8,48 7.2,48 22.8,24 23.4,24 	"/>
	<polygon id="XMLID_19_" points="10.2,48 9.6,48 24,24 24.6,24 	"/>
	<polygon id="XMLID_18_" points="12.6,48 12,48 25.2,24 25.8,24 	"/>
	<polygon id="XMLID_17_" points="15,48 14.4,48 26.4,24 27,24 	"/>
	<polygon id="XMLID_15_" points="17.4,48 16.8,48 27.6,24 28.2,24 	"/>
</g>
<g id="XMLID_42_">
	<polygon id="XMLID_9_" points="21,24 20.4,24 31.2,0 31.8,0 	"/>
	<polygon id="XMLID_14_" points="22.2,24 21.6,24 33.5,0 34.1,0 	"/>
	<polygon id="XMLID_13_" points="23.4,24 22.8,24 35.8,0 36.4,0 	"/>
	<polygon id="XMLID_12_" points="24.6,24 24,24 38.1,0 38.7,0 	"/>
	<polygon id="XMLID_11_" points="25.8,24 25.2,24 40.4,0 41,0 	"/>
	<polygon id="XMLID_10_" points="27,24 26.4,24 42.7,0 43.3,0 	"/>
	<polygon id="XMLID_8_" points="28.2,24 27.6,24 45,0 45.6,0 	"/>
</g>
<g id="XMLID_41_">
	<polygon id="XMLID_2_" points="27.6,24 28.2,24 17.4,0 16.8,0 	"/>
	<polygon id="XMLID_7_" points="26.4,24 27,24 15,0 14.4,0 	"/>
	<polygon id="XMLID_6_" points="25.2,24 25.8,24 12.6,0 12,0 	"/>
	<polygon id="XMLID_5_" points="24,24 24.6,24 10.2,0 9.6,0 	"/>
	<polygon id="XMLID_4_" points="22.8,24 23.4,24 7.8,0 7.2,0 	"/>
	<polygon id="XMLID_3_" points="21.6,24 22.2,24 5.4,0 4.8,0 	"/>
	<polygon id="XMLID_1_" points="20.4,24 21,24 3,0 2.4,0 	"/>
</g>
</svg>
