<?xml version="1.0" encoding="utf-8"?>
<!-- Generator: Adobe Illustrator 19.0.0, SVG Export Plug-In . SVG Version: 6.00 Build 0)  -->
<svg version="1.1" id="Layer_1" xmlns="http://www.w3.org/2000/svg" xmlns:xlink="http://www.w3.org/1999/xlink" x="0px" y="0px"
	 viewBox="0 0 48 48" style="enable-background:new 0 0 48 48;" xml:space="preserve">
<style type="text/css">
	.st0{fill:#888888;}
	.st1{fill:#ED008B;}
	.st2{fill:#EDAB00;}
	.st3{fill:#00BBCD;}
</style>
<g id="XMLID_44_">
	<polygon id="XMLID_23_" class="st0" points="45,48 45.6,48 28.2,24 27.6,24 	"/>
	<polygon id="XMLID_28_" class="st0" points="42.7,48 43.3,48 27,24 26.4,24 	"/>
	<polygon id="XMLID_27_" class="st0" points="40.4,48 41,48 25.8,24 25.2,24 	"/>
	<polygon id="XMLID_26_" class="st0" points="38.1,48 38.7,48 24.6,24 24,24 	"/>
	<polygon id="XMLID_25_" class="st0" points="35.8,48 36.4,48 23.4,24 22.8,24 	"/>
	<polygon id="XMLID_24_" class="st0" points="33.5,48 34.1,48 22.2,24 21.6,24 	"/>
	<polygon id="XMLID_22_" class="st0" points="31.2,48 31.8,48 21,24 20.4,24 	"/>
</g>
<g id="XMLID_43_">
	<polygon id="XMLID_16_" class="st1" points="3,48 2.4,48 20.4,24 21,24 	"/>
	<polygon id="XMLID_21_" class="st1" points="5.4,48 4.8,48 21.6,24 22.2,24 	"/>
	<polygon id="XMLID_20_" class="st1" points="7.8,48 7.2,48 22.8,24 23.4,24 	"/>
	<polygon id="XMLID_19_" class="st1" points="10.2,48 9.6,48 24,24 24.6,24 	"/>
	<polygon id="XMLID_18_" class="st1" points="12.6,48 12,48 25.2,24 25.8,24 	"/>
	<polygon id="XMLID_17_" class="st1" points="15,48 14.4,48 26.4,24 27,24 	"/>
	<polygon id="XMLID_15_" class="st1" points="17.4,48 16.8,48 27.6,24 28.2,24 	"/>
</g>
<g id="XMLID_42_">
	<polygon id="XMLID_9_" class="st2" points="21,24 20.4,24 31.2,0 31.8,0 	"/>
	<polygon id="XMLID_14_" class="st2" points="22.2,24 21.6,24 33.5,0 34.1,0 	"/>
	<polygon id="XMLID_13_" class="st2" points="23.4,24 22.8,24 35.8,0 36.4,0 	"/>
	<polygon id="XMLID_12_" class="st2" points="24.6,24 24,24 38.1,0 38.7,0 	"/>
	<polygon id="XMLID_11_" class="st2" points="25.8,24 25.2,24 40.4,0 41,0 	"/>
	<polygon id="XMLID_10_" class="st2" points="27,24 26.4,24 42.7,0 43.3,0 	"/>
	<polygon id="XMLID_8_" class="st2" points="28.2,24 27.6,24 45,0 45.6,0 	"/>
</g>
<g id="XMLID_41_">
	<polygon id="XMLID_2_" class="st3" points="27.6,24 28.2,24 17.4,0 16.8,0 	"/>
	<polygon id="XMLID_7_" class="st3" points="26.4,24 27,24 15,0 14.4,0 	"/>
	<polygon id="XMLID_6_" class="st3" points="25.2,24 25.8,24 12.6,0 12,0 	"/>
	<polygon id="XMLID_5_" class="st3" points="24,24 24.6,24 10.2,0 9.6,0 	"/>
	<polygon id="XMLID_4_" class="st3" points="22.8,24 23.4,24 7.8,0 7.2,0 	"/>
	<polygon id="XMLID_3_" class="st3" points="21.6,24 22.2,24 5.4,0 4.8,0 	"/>
	<polygon id="XMLID_1_" class="st3" points="20.4,24 21,24 3,0 2.4,0 	"/>
</g>
</svg>
